<svg data-id="lg_VmYBTR7r8mFn49rSEz" data-version="1" viewBox="480 0 547.5 450.4950495049505" xml:space="preserve" xmlns="http://www.w3.org/2000/svg" style="max-height: 500px" width="547.5" height="450.4950495049505"><g transform="matrix(1,0,0,1,0,0)" data-padding="20" id="outer-wrapper"><g transform="matrix(0.9640933572710951,0,0,0.9640933572710951,10,8.168761220825871)" id="inner-wrapper"><path d="M1040.8555214152698 328.2124999764543H488.8755214152699" stroke-width="1.8" stroke="#21272d" fill="#ea5141"/><g transform="translate(314.56 611.1)"><filter y="-58%" x="-42%" height="216%" width="184%" id="a"><feGaussianBlur stdDeviation="5" in="SourceAlpha"/><feOffset result="oBlur" dy="2" dx="2"/><feFlood flood-opacity="0" flood-color="#fff"/><feComposite operator="in" in2="oBlur"/><feMerge><feMergeNode/><feMergeNode in="SourceGraphic"/></feMerge></filter><g filter="url(#a)"><rect transform="scale(1.46)" ry="0" rx="0" fill="none" y="-127.94910960516827" x="234.01235713374658" height="20.34" width="35.475"/><path d="M343.60552141526995 -163.90750002354565V-182.36750002354566H357.1355214152699V-179.40750002354565H347.1455214152699V-174.63750002354567H356.10552141526995V-171.70750002354566H347.1455214152699V-166.85750002354567H357.45552141526997V-163.90750002354565ZM374.06552141527 -180.69750002354567L372.64552141526997 -177.79750002354567Q371.66552141526995 -178.40750002354565 370.65552141526996 -178.80750002354566Q369.6355214152699 -179.19750002354567 368.73552141526994 -179.36750002354566Q367.84552141526996 -179.53750002354568 367.10552141526995 -179.53750002354568Q365.86552141526994 -179.53750002354568 365.11552141526994 -179.06750002354568T364.36552141526994 -177.66750002354567Q364.36552141526994 -176.82750002354567 364.90552141526996 -176.29750002354567T366.32552141527 -175.42750002354566Q367.21552141526996 -175.08750002354566 368.2655214152699 -174.76750002354567Q369.31552141527 -174.45750002354566 370.37552141526993 -174.06750002354568Q371.42552141526994 -173.68750002354565 372.31552141527 -173.07750002354567Q373.19552141527 -172.47750002354567 373.72552141526995 -171.52750002354566T374.2555214152699 -169.15750002354565Q374.2555214152699 -167.43750002354565 373.32552141527 -166.22750002354567Q372.40552141526996 -165.01750002354567 370.80552141526994 -164.35750002354567Q369.21552141526996 -163.69750002354567 367.18552141526993 -163.69750002354567Q365.70552141526997 -163.69750002354567 364.29552141526995 -164.07750002354567T361.6355214152699 -165.11750002354566T359.37552141526993 -166.64750002354566L360.85552141526995 -169.51750002354567Q361.80552141526994 -168.64750002354566 362.91552141526995 -168.02750002354566Q364.01552141527 -167.40750002354565 365.14552141526997 -167.08750002354566Q366.26552141527 -166.75750002354567 367.23552141526994 -166.75750002354567Q368.73552141526994 -166.75750002354567 369.57552141527 -167.33750002354566Q370.40552141526996 -167.91750002354567 370.40552141526996 -168.96750002354565Q370.40552141526996 -169.83750002354566 369.86552141526994 -170.36750002354566Q369.31552141527 -170.89750002354566 368.44552141527 -171.24750002354565Q367.57552141527 -171.60750002354567 366.5155214152699 -171.87750002354565Q365.44552141527 -172.15750002354565 364.3855214152699 -172.53750002354568Q363.33552141526997 -172.92750002354566 362.45552141526997 -173.51750002354567Q361.56552141527 -174.10750002354567 361.02552141526996 -175.03750002354568Q360.48552141526994 -175.95750002354566 360.48552141526994 -177.37750002354565Q360.48552141526994 -178.98750002354566 361.35552141526995 -180.15750002354565Q362.22552141526995 -181.33750002354566 363.7655214152699 -181.97750002354567Q365.31552141527 -182.62750002354565 367.39552141526997 -182.62750002354565Q369.24552141526993 -182.62750002354565 370.99552141526993 -182.09750002354565T374.06552141527 -180.69750002354567M375.53552141526995 -179.38750002354567V-182.36750002354566H390.58552141526997V-179.38750002354567H384.84552141526996V-163.90750002354565H381.28552141526995V-179.38750002354567Z" fill="#21272d"/></g></g><path d="M763.6955214152698 426.53749997645434L769.2855214152697 420.64249997645436L770.3385214152698 428.69649997645433L778.3285214152698 427.2124999764543L774.4455214152698 434.35049997645433L781.7815214152698 437.8424999764543L774.4455214152698 441.33449997645425L778.3285214152698 448.4724999764543L770.3385214152698 446.98849997645425L769.2855214152698 455.04249997645434L763.6955214152698 449.14749997645436L758.1055214152699 455.04249997645434L757.0515214152699 446.98849997645436L749.06252141527 448.4724999764544L752.9455214152699 441.33449997645437L745.6095214152699 437.8424999764544L752.9455214152699 434.35049997645444L749.06252141527 427.2124999764544L757.05252141527 428.69649997645445L758.1055214152699 420.6424999764545Z" fill="#ea5141"/><g transform="translate(489.56 610.86)"><filter y="-57%" x="-36%" height="214%" width="172%" id="b"><feGaussianBlur stdDeviation="5" in="SourceAlpha"/><feOffset result="oBlur" dy="2" dx="2"/><feFlood flood-opacity="0" flood-color="#fff"/><feComposite operator="in" in2="oBlur"/><feMerge><feMergeNode/><feMergeNode in="SourceGraphic"/></feMerge></filter><g filter="url(#b)"><rect transform="scale(.9)" ry="0" rx="0" fill="none" y="-208.57888891505075" x="367.9350237947444" height="35.03" width="80.919"/><path d="M332.69552141527 -165.07750002354567L340.09552141526996 -172.75750002354567Q341.13552141527 -173.82750002354567 341.78552141526995 -174.90750002354565Q342.44552141527 -175.98750002354566 342.44552141527 -176.79750002354567Q342.44552141527 -177.94750002354567 341.60552141526995 -178.56750002354568Q340.76552141527 -179.17750002354566 339.28552141526995 -179.17750002354566Q337.99552141526993 -179.17750002354566 336.53552141526995 -178.53750002354568Q335.07552141527 -177.88750002354567 333.78552141526995 -176.76750002354567L332.30552141527 -179.45750002354566Q334.01552141527 -180.77750002354566 335.91552141527 -181.53750002354568Q337.82552141527 -182.29750002354567 339.81552141527 -182.29750002354567Q341.77552141526996 -182.29750002354567 343.23552141526994 -181.67750002354566T345.53552141527 -179.93750002354565T346.37552141527 -177.32750002354567Q346.37552141527 -175.84750002354568 345.32552141527 -174.20750002354566T342.64552141526997 -170.88750002354567L336.44552141527 -164.46750002354565L335.94552141527 -165.61750002354566H347.21552141526996V-162.49750002354565H332.69552141527ZM358.09552141526996 -182.25750002354567Q362.15552141526996 -182.25750002354567 364.34552141526996 -179.67750002354566Q366.52552141526996 -177.09750002354565 366.52552141526996 -172.30750002354566Q366.52552141526996 -167.50750002354567 364.34552141526996 -164.92750002354566Q362.15552141526996 -162.34750002354565 358.09552141526996 -162.34750002354565Q354.02552141526996 -162.34750002354565 351.83552141526997 -164.92750002354566Q349.65552141526996 -167.50750002354567 349.65552141526996 -172.30750002354566Q349.65552141526996 -177.09750002354565 351.83552141526997 -179.67750002354566Q354.02552141526996 -182.25750002354567 358.09552141526996 -182.25750002354567M358.09552141526996 -179.47750002354567Q355.79552141527 -179.47750002354567 354.65552141526996 -177.73750002354566Q353.52552141526996 -176.00750002354567 353.52552141526996 -172.30750002354566Q353.52552141526996 -168.62750002354565 354.65552141526996 -166.87750002354568Q355.79552141527 -165.12750002354568 358.09552141526996 -165.12750002354568Q360.41552141526995 -165.12750002354568 361.53552141526995 -166.87750002354568Q362.66552141526995 -168.62750002354568 362.66552141526995 -172.30750002354566Q362.66552141526995 -176.00750002354567 361.53552141526995 -177.73750002354566Q360.41552141526995 -179.47750002354567 358.09552141526996 -179.47750002354567M369.01552141527 -165.07750002354567L376.41552141526995 -172.75750002354567Q377.45552141526997 -173.82750002354567 378.11552141526994 -174.90750002354565Q378.76552141527 -175.98750002354566 378.76552141527 -176.79750002354567Q378.76552141527 -177.94750002354567 377.92552141527 -178.56750002354568Q377.08552141526997 -179.17750002354566 375.60552141526995 -179.17750002354566Q374.31552141527 -179.17750002354566 372.85552141526995 -178.53750002354568Q371.39552141526997 -177.88750002354567 370.10552141526995 -176.76750002354567L368.62552141526993 -179.45750002354566Q370.33552141526997 -180.77750002354566 372.23552141526994 -181.53750002354568Q374.14552141526997 -182.29750002354567 376.13552141527 -182.29750002354567Q378.09552141526996 -182.29750002354567 379.55552141527 -181.67750002354566T381.85552141526995 -179.93750002354565T382.69552141527 -177.32750002354567Q382.69552141527 -175.84750002354568 381.64552141526997 -174.20750002354566T378.96552141526996 -170.88750002354567L372.77552141526996 -164.46750002354565L372.26552141527 -165.61750002354566H383.53552141526995V-162.49750002354565H369.01552141527ZM394.42552141527 -182.25750002354567Q398.48552141526994 -182.25750002354567 400.67552141527 -179.67750002354566Q402.85552141526995 -177.09750002354565 402.85552141526995 -172.30750002354566Q402.85552141526995 -167.50750002354567 400.67552141527 -164.92750002354566Q398.48552141526994 -162.34750002354565 394.42552141527 -162.34750002354565Q390.35552141526995 -162.34750002354565 388.17552141527 -164.92750002354566Q385.98552141526994 -167.50750002354567 385.98552141526994 -172.30750002354566Q385.98552141526994 -177.09750002354565 388.17552141527 -179.67750002354566Q390.35552141526995 -182.25750002354567 394.42552141527 -182.25750002354567M394.42552141527 -179.47750002354567Q392.12552141526993 -179.47750002354567 390.98552141526994 -177.73750002354566Q389.85552141526995 -176.00750002354567 389.85552141526995 -172.30750002354566Q389.85552141526995 -168.62750002354565 390.98552141526994 -166.87750002354565Q392.12552141526993 -165.12750002354565 394.42552141527 -165.12750002354565Q396.74552141526993 -165.12750002354565 397.86552141526994 -166.87750002354565Q398.99552141526993 -168.62750002354565 398.99552141526993 -172.30750002354566Q398.99552141526993 -176.00750002354567 397.86552141526994 -177.73750002354566Q396.74552141526993 -179.47750002354567 394.42552141527 -179.47750002354567" fill="#21272d"/></g></g><path d="M1046.2455214152699 402.29249997645434H494.26552141526986" stroke-width="1.8" stroke="#21272d" fill="#21272d"/><rect transform="translate(397.81 459.81)" ry="0" rx="0" fill="none" y="-203.0325000235457" x="102.31252141526988" height="62.15" width="530.487"/><path d="M520.2055214152699 305.13249997645426H508.1055214152699V266.63249997645426H520.2055214152699Q526.5855214152698 266.63249997645426 531.3155214152698 269.05249997645427T538.6855214152699 275.7924999764543T541.3255214152698 285.88249997645426Q541.3255214152698 291.6624999764542 538.6855214152699 295.97249997645423Q536.0455214152698 300.2924999764542 531.3155214152698 302.71249997645424T520.2055214152699 305.13249997645426M520.2055214152699 267.95249997645425H511.84552141526984V303.81249997645426H520.2055214152699Q528.1755214152699 303.81249997645426 532.65552141527 299.08249997645424Q537.14552141527 294.3524999764542 537.14552141527 285.88249997645426T532.65552141527 272.68249997645427Q528.1755214152699 267.95249997645425 520.2055214152699 267.95249997645425M569.8155214152698 305.13249997645426H552.87552141527V266.63249997645426H569.64552141527V269.33249997645424L560.0255214152698 268.06249997645426Q557.4955214152699 267.7324999764543 556.61552141527 267.7324999764543V284.5124999764543Q557.3255214152698 284.5124999764543 560.0255214152698 284.3424999764543L569.0455214152698 283.7924999764543V286.32249997645425L560.0255214152698 285.77249997645424Q557.3255214152698 285.6124999764542 556.61552141527 285.6124999764542V304.03249997645423Q557.60552141527 304.03249997645423 560.0755214152698 303.70249997645425L569.8155214152698 302.44249997645426ZM598.3055214152698 305.13249997645426H581.36552141527V266.63249997645426H598.13552141527V269.33249997645424L588.5155214152699 268.06249997645426Q585.9855214152699 267.7324999764543 585.10552141527 267.7324999764543V284.5124999764543Q585.8155214152698 284.5124999764543 588.5155214152699 284.3424999764543L597.5355214152698 283.7924999764543V286.32249997645425L588.5155214152699 285.77249997645424Q585.8155214152698 285.6124999764542 585.10552141527 285.6124999764542V304.03249997645423Q586.09552141527 304.03249997645423 588.5655214152698 303.70249997645425L598.3055214152698 302.44249997645426ZM639.2255214152699 286.87249997645426H629.0455214152698V285.55249997645427H642.9655214152699V300.51249997645425Q640.4355214152699 303.0424999764542 636.7755214152698 304.47249997645423T628.60552141527 305.90249997645424Q623.9855214152699 305.90249997645424 620.0855214152698 304.39249997645425Q616.1755214152699 302.88249997645426 613.2655214152699 300.15249997645424Q610.34552141527 297.4324999764542 608.7255214152699 293.8024999764542T607.10552141527 285.8824999764542T608.7255214152699 277.9624999764542T613.2655214152699 271.61249997645416Q616.1755214152699 268.89249997645413 620.0855214152698 267.37249997645415Q623.9855214152699 265.86249997645416 628.60552141527 265.86249997645416Q630.58552141527 265.86249997645416 632.9255214152699 266.14249997645413Q635.2655214152699 266.4124999764541 637.40552141527 266.88249997645414Q639.5555214152698 267.35249997645417 641.0355214152698 268.01249997645414L640.7655214152699 271.0924999764541H640.4355214152699Q638.2355214152699 269.1624999764541 635.15552141527 268.1724999764541T628.60552141527 267.1824999764541Q623.4355214152699 267.1824999764541 619.5355214152701 269.52249997645407Q615.62552141527 271.86249997645405 613.4555214152699 276.0624999764541Q611.2855214152701 280.27249997645407 611.2855214152701 285.8824999764541T613.4555214152699 295.7024999764541T619.5355214152701 302.2424999764541Q623.4355214152699 304.5824999764541 628.60552141527 304.5824999764541Q631.7955214152701 304.5824999764541 634.5155214152701 303.7024999764541Q637.2455214152701 302.8224999764541 639.2255214152699 301.1724999764541ZM659.35552141527 305.13249997645426H655.61552141527V266.63249997645426H659.35552141527V284.45249997645425H682.4555214152699V266.63249997645426H686.1955214152699V305.13249997645426H682.4555214152699V285.77249997645424H659.35552141527ZM698.7855214152698 305.13249997645426H694.7755214152698L709.56552141527 266.63249997645426H712.9755214152699L727.7755214152701 305.13249997645426H723.7555214152701L716.9355214152699 287.09249997645423H704.4555214152699ZM710.2855214152698 269.49249997645427H709.9555214152699L704.83552141527 285.7724999764543H716.4455214152699ZM748.89552141527 305.13249997645426H744.9355214152699V288.8524999764542L731.2955214152701 266.6324999764542H735.4755214152699L747.7355214152699 286.7624999764542H748.06552141527L757.85552141527 266.6324999764542H762.0355214152701L748.89552141527 288.0824999764542ZM770.06552141527 289.72249997645423V266.6224999764542H773.80552141527V289.8324999764542Q773.80552141527 296.4924999764542 777.07552141527 300.2024999764542Q780.35552141527 303.91249997645417 786.2955214152701 303.91249997645417Q790.0355214152701 303.91249997645417 792.80552141527 302.4524999764542Q795.58552141527 301.0024999764542 797.09552141527 298.41249997645417Q798.61552141527 295.8324999764542 798.5055214152701 292.4724999764542L797.56552141527 266.62249997645415H801.30552141527L800.37552141527 292.4724999764542Q800.15552141527 299.0724999764542 796.4355214152699 302.48249997645416Q792.7255214152701 305.8924999764542 785.85552141527 305.8924999764542Q778.4255214152699 305.8924999764542 774.2455214152701 301.5724999764542Q770.06552141527 297.2624999764542 770.06552141527 289.7224999764542M829.35552141527 305.1324999764542V266.6324999764542H836.7255214152701Q842.55552141527 266.6324999764542 845.7755214152701 269.0824999764542T848.9955214152701 275.9324999764542Q848.9955214152701 279.34249997645423 846.9855214152701 281.59249997645423Q844.9755214152701 283.8524999764542 841.1855214152702 284.6224999764542V284.9524999764542Q844.81552141527 285.66249997645417 847.12552141527 288.3624999764542Q849.4355214152702 291.0524999764542 850.58552141527 295.0124999764542Q851.63552141527 298.6424999764542 852.64552141527 300.6524999764542Q853.66552141527 302.66249997645417 854.90552141527 303.54249997645417T857.84552141527 304.80249997645416V305.13249997645414H855.59552141527Q853.1755214152699 305.13249997645414 851.60552141527 304.25249997645415T848.9355214152699 301.2824999764541T846.84552141527 295.51249997645414Q845.2555214152701 289.8424999764541 842.61552141527 287.48249997645416Q839.9755214152701 285.11249997645416 836.1755214152699 285.11249997645416H835.84552141527V284.12249997645415H836.1755214152699Q845.0355214152701 284.12249997645415 845.0355214152701 275.98249997645416Q845.0355214152701 267.9524999764542 836.7255214152701 267.9524999764542H833.09552141527V305.1324999764542ZM881.60552141527 305.1324999764542H864.6655214152702V266.6324999764542H881.4455214152702V269.3324999764542L871.81552141527 268.0624999764542Q869.2855214152701 267.7324999764542 868.4055214152702 267.7324999764542V284.5124999764542Q869.1255214152702 284.5124999764542 871.81552141527 284.3424999764542L880.83552141527 283.79249997645417V286.32249997645414L871.81552141527 285.7724999764541Q869.1255214152702 285.6124999764541 868.4055214152702 285.6124999764541V304.0324999764541Q869.3955214152702 304.0324999764541 871.8755214152702 303.70249997645413L881.60552141527 302.44249997645414ZM889.80552141527 303.9224999764542L890.1355214152702 300.6224999764542H890.4655214152701Q892.6055214152702 302.4924999764542 895.3055214152703 303.5424999764542Q897.9955214152703 304.58249997645424 900.6355214152702 304.58249997645424Q904.3755214152702 304.58249997645424 906.6855214152702 302.52249997645424T908.9955214152701 296.99249997645427Q908.9955214152701 295.07249997645425 908.1455214152702 293.4224999764543T905.3355214152703 290.06249997645426Q903.3855214152702 288.3624999764543 899.9755214152701 286.38249997645426Q897.6155214152702 285.00249997645426 895.4655214152701 283.49249997645427Q893.3255214152703 281.9824999764543 891.9455214152702 279.9724999764543Q890.5755214152703 277.9624999764543 890.5755214152703 275.1624999764543Q890.5755214152703 270.9824999764543 893.5955214152702 268.4224999764543Q896.6255214152702 265.8624999764543 901.5755214152703 265.8624999764543Q903.7755214152703 265.8624999764543 906.3055214152703 266.3324999764543T910.2055214152701 267.5124999764543L909.9355214152702 270.5924999764543H909.6055214152702Q906.4655214152701 267.18249997645427 901.5755214152703 267.18249997645427Q898.0555214152703 267.18249997645427 895.9055214152702 268.9724999764543Q893.7655214152703 270.7624999764543 893.7655214152703 273.7824999764543Q893.7655214152703 276.0424999764543 894.9455214152702 277.6624999764543T897.9955214152701 280.5724999764543Q899.8655214152702 281.8724999764543 902.0155214152701 283.0824999764543Q904.4855214152701 284.5124999764543 906.82552141527 286.1024999764543Q909.1655214152702 287.7024999764543 910.6755214152702 289.9224999764543Q912.1855214152702 292.1524999764543 912.1855214152702 295.51249997645425Q912.1855214152702 298.59249997645423 910.7555214152701 300.9224999764543Q909.3255214152703 303.26249997645425 906.7155214152701 304.5824999764543T900.6355214152702 305.9024999764543Q898.4355214152702 305.9024999764543 895.4655214152701 305.3524999764543T889.8055214152703 303.9224999764543M920.2755214152703 285.88249997645426Q920.2755214152703 281.65249997645424 921.7855214152703 277.99249997645427T926.0155214152703 271.6124999764543Q928.7455214152703 268.89249997645425 932.3955214152702 267.37249997645426Q936.0555214152703 265.8624999764543 940.2955214152703 265.8624999764543Q944.5255214152703 265.8624999764543 948.1855214152702 267.37249997645426Q951.8455214152702 268.89249997645425 954.5655214152703 271.6124999764543T958.7955214152703 277.99249997645427Q960.3155214152703 281.6524999764543 960.3155214152703 285.88249997645426Q960.3155214152703 290.12249997645426 958.7955214152703 293.77249997645424Q957.2855214152703 297.43249997645427 954.5655214152703 300.15249997645424Q951.8455214152702 302.88249997645426 948.1855214152702 304.39249997645425T940.2955214152703 305.90249997645424Q936.0555214152703 305.90249997645424 932.3955214152702 304.39249997645425Q928.7455214152703 302.88249997645426 926.0155214152703 300.15249997645424Q923.2955214152703 297.4324999764542 921.7855214152703 293.77249997645424Q920.2755214152703 290.12249997645426 920.2755214152703 285.88249997645426M924.4555214152701 285.88249997645426Q924.4555214152701 291.49249997645427 926.4355214152702 295.70249997645425T931.9855214152701 302.24249997645427Q935.5655214152703 304.58249997645424 940.2955214152701 304.58249997645424T948.59552141527 302.24249997645427Q952.1755214152702 299.9124999764543 954.15552141527 295.6724999764543Q956.13552141527 291.44249997645426 956.13552141527 285.88249997645426Q956.13552141527 280.33249997645424 954.15552141527 276.12249997645426T948.59552141527 269.55249997645427Q945.0255214152701 267.18249997645427 940.2955214152701 267.18249997645427T932.0155214152701 269.52249997645424T926.4555214152701 276.06249997645426Q924.4555214152701 280.27249997645424 924.4555214152701 285.88249997645426M971.8755214152702 305.13249997645426V266.63249997645426H979.2455214152701Q985.0755214152703 266.63249997645426 988.2855214152701 269.08249997645424Q991.5055214152701 271.53249997645423 991.5055214152701 275.93249997645427Q991.5055214152701 279.3424999764543 989.4955214152701 281.5924999764543Q987.4955214152701 283.8524999764543 983.6955214152702 284.62249997645426V284.95249997645425Q987.3255214152703 285.6624999764542 989.6355214152702 288.3624999764543Q991.9455214152702 291.05249997645427 993.1055214152702 295.01249997645425Q994.1455214152702 298.64249997645425 995.1655214152702 300.65249997645424T997.4155214152702 303.5424999764542Q998.6555214152702 304.4224999764542 1000.3655214152702 304.8024999764542V305.1324999764542H998.1055214152702Q995.6855214152704 305.1324999764542 994.1155214152702 304.2524999764542Q992.5555214152703 303.3724999764542 991.4555214152704 301.2824999764542T989.3655214152702 295.5124999764542Q987.7655214152703 289.8424999764542 985.1255214152702 287.4824999764542Q982.4855214152703 285.1124999764542 978.6955214152704 285.1124999764542H978.3655214152702V284.1224999764542H978.6955214152704Q987.5455214152703 284.1224999764542 987.5455214152703 275.9824999764542Q987.5455214152703 267.95249997645425 979.2455214152703 267.95249997645425H975.6155214152705V305.13249997645426ZM1019.7155214152701 305.13249997645426H1015.9755214152701V267.7324999764543Q1015.1455214152702 267.7324999764543 1012.5655214152703 268.06249997645426L1001.7855214152703 269.44249997645426V266.63249997645426H1033.9055214152702V269.44249997645426L1023.1255214152702 268.06249997645426Q1020.5355214152703 267.7324999764543 1019.7155214152704 267.7324999764543Z" fill="#21272d"/><rect transform="translate(398.56 535.49)" ry="0" rx="0" fill="none" y="-190.03750002354565" x="137.57752141526987" height="36.16" width="459.956"/><path d="M549.5855214152699 373.5924999764543H546.2255214152699V365.42249997645433L539.7555214152699 351.9824999764543H543.2955214152698L545.8555214152699 357.78249997645423Q546.3555214152699 358.9824999764543 546.8255214152698 360.14249997645425Q547.3055214152698 361.2924999764542 547.8355214152698 362.51249997645425H547.9755214152699Q548.5055214152699 361.2924999764542 549.0455214152698 360.14249997645425Q549.5755214152698 358.9824999764543 550.0555214152698 357.78249997645423L552.5855214152698 351.9824999764543H556.0755214152698L549.5855214152698 365.42249997645433ZM567.0055214152699 373.9824999764543Q564.2455214152699 373.9824999764543 562.1255214152699 372.6124999764543Q560.0055214152699 371.25249997645426 558.8155214152698 368.7124999764543Q557.6155214152699 366.1824999764543 557.6155214152699 362.7024999764543Q557.6155214152699 359.2124999764543 558.8155214152698 356.7324999764543Q560.0055214152699 354.25249997645426 562.1255214152699 352.92249997645433T567.0055214152699 351.5924999764543Q569.7755214152698 351.5924999764543 571.8955214152699 352.92249997645433Q574.0055214152699 354.26249997645436 575.2055214152699 356.7524999764544Q576.3955214152699 359.2524999764544 576.3955214152699 362.7024999764544Q576.3955214152699 366.18249997645444 575.2055214152699 368.7124999764544Q574.0055214152699 371.2524999764544 571.8955214152699 372.6124999764544Q569.7755214152698 373.9824999764544 567.0055214152699 373.9824999764544M567.0055214152699 371.0724999764544Q568.8255214152698 371.0724999764544 570.1555214152698 370.04249997645445Q571.4955214152699 369.0124999764545 572.2355214152699 367.1424999764545Q572.9755214152699 365.2624999764545 572.9755214152699 362.7024999764544Q572.9755214152699 358.8924999764545 571.3555214152699 356.7024999764544Q569.7255214152699 354.51249997645436 567.0055214152699 354.51249997645436Q564.3255214152699 354.51249997645436 562.6955214152699 356.7024999764544Q561.0755214152699 358.8924999764545 561.0755214152699 362.7024999764544Q561.0755214152699 365.26249997645436 561.8055214152698 367.1424999764545Q562.5455214152698 369.0124999764545 563.8755214152699 370.04249997645445Q565.2155214152699 371.0724999764544 567.0055214152699 371.0724999764544M588.7755214152698 373.9724999764544Q586.4155214152698 373.9724999764544 584.6155214152699 373.03249997645435Q582.8055214152698 372.0924999764543 581.7955214152698 369.9924999764544Q580.7755214152698 367.88249997645437 580.7755214152698 364.3624999764544V351.9724999764544H584.1155214152699V364.56249997645443Q584.1155214152699 367.02249997645447 584.7155214152699 368.4424999764544Q585.3255214152699 369.8624999764544 586.3755214152699 370.4624999764544Q587.4355214152699 371.06249997645443 588.7755214152698 371.06249997645443Q590.1455214152699 371.06249997645443 591.2255214152699 370.4624999764544T592.9355214152699 368.4424999764544Q593.5555214152698 367.02249997645447 593.5555214152698 364.56249997645443V351.9724999764544H596.7555214152699V364.3624999764544Q596.7555214152699 367.88249997645437 595.7555214152699 369.9924999764544Q594.7455214152699 372.0924999764544 592.9455214152699 373.03249997645435T588.7755214152698 373.9724999764544M605.6855214152699 373.5924999764544H602.3555214152699V351.9824999764544H609.3955214152699Q611.6155214152699 351.9824999764544 613.3755214152699 352.5724999764544Q615.1355214152699 353.17249997645445 616.1555214152698 354.53249997645446Q617.1855214152698 355.90249997645446 617.1855214152698 358.2524999764545Q617.1855214152698 360.5024999764545 616.1555214152698 361.9624999764545Q615.1355214152699 363.42249997645456 613.3755214152699 364.1324999764545T609.3955214152699 364.8424999764545H605.6855214152698ZM605.6855214152699 354.68249997645444V362.17249997645445H609.0055214152699Q611.3555214152699 362.17249997645445 612.6155214152699 361.1924999764544Q613.8655214152699 360.2124999764544 613.8655214152699 358.2524999764544Q613.8655214152699 356.26249997645436 612.6155214152699 355.4724999764544Q611.3555214152699 354.68249997645444 609.0055214152699 354.68249997645444ZM617.9155214152698 373.5924999764544H614.1655214152698L608.7455214152699 363.93249997645444L611.2555214152699 362.03249997645446ZM635.1455214152699 373.5924999764544H631.8255214152698V351.9824999764544H635.1455214152699V360.8224999764544H644.4955214152699V351.9824999764544H647.8355214152698V373.5924999764544H644.4955214152699V363.7524999764544H635.1455214152699ZM661.7155214152699 373.9824999764544Q658.9455214152699 373.9824999764544 656.8255214152698 372.6124999764544Q654.7155214152699 371.2524999764544 653.5155214152699 368.7124999764544Q652.3255214152698 366.18249997645444 652.3255214152698 362.7024999764544Q652.3255214152698 359.2124999764544 653.5155214152699 356.7324999764544Q654.7155214152699 354.2524999764544 656.8255214152698 352.92249997645445Q658.9455214152699 351.5924999764544 661.7155214152699 351.5924999764544Q664.4755214152699 351.5924999764544 666.5955214152698 352.92249997645445Q668.7155214152699 354.2624999764545 669.9055214152698 356.7524999764545Q671.1055214152698 359.2524999764545 671.1055214152698 362.70249997645453Q671.1055214152698 366.18249997645455 669.9055214152698 368.7124999764545Q668.7155214152699 371.2524999764545 666.5955214152698 372.6124999764545Q664.4755214152699 373.9824999764545 661.7155214152699 373.9824999764545M661.7155214152699 371.07249997645454Q663.5255214152698 371.07249997645454 664.8655214152698 370.04249997645456Q666.1955214152698 369.0124999764546 666.9355214152698 367.1424999764546Q667.6855214152698 365.2624999764546 667.6855214152698 362.70249997645453Q667.6855214152698 358.8924999764546 666.0555214152698 356.70249997645453Q664.4355214152698 354.5124999764545 661.7155214152699 354.5124999764545Q659.0255214152698 354.5124999764545 657.3955214152699 356.70249997645453Q655.7755214152698 358.8924999764546 655.7755214152698 362.70249997645453Q655.7755214152698 365.2624999764545 656.5055214152699 367.1424999764546Q657.2455214152699 369.0124999764546 658.5755214152698 370.04249997645456Q659.9155214152698 371.07249997645454 661.7155214152699 371.07249997645454M678.5755214152698 373.5924999764545H675.5855214152698V351.9824999764545H679.4455214152699L683.41552141527 363.0024999764545Q683.7955214152698 364.06249997645443 684.14552141527 365.16249997645446T684.86552141527 367.3424999764544H684.9955214152699Q685.36552141527 366.26249997645436 685.7055214152699 365.16249997645446T686.41552141527 363.0024999764545L690.3055214152698 351.9824999764545H694.1955214152699V373.5924999764545H691.1155214152699V362.79249997645456Q691.1155214152699 361.82249997645454 691.1855214152699 360.57249997645454T691.3555214152699 358.07249997645454Q691.4455214152699 356.81249997645455 691.5455214152698 355.82249997645454H691.39552141527L689.6855214152699 361.1024999764545L685.89552141527 371.5024999764545H683.8055214152699L680.02552141527 361.1024999764545L678.3055214152699 355.82249997645454H678.16552141527Q678.2555214152699 356.81249997645455 678.35552141527 358.07249997645454Q678.4455214152699 359.32249997645454 678.5055214152699 360.57249997645454Q678.5755214152699 361.82249997645454 678.5755214152699 362.79249997645456ZM712.9655214152699 373.5924999764545H699.8855214152699V351.9824999764545H712.6355214152699V354.79249997645445H703.2155214152699V360.8924999764545H711.1855214152699V363.7324999764545H703.2155214152699V370.78249997645446H712.9655214152699ZM735.9355214152699 351.9824999764545L743.1155214152699 373.5924999764545H739.5755214152698L737.7155214152699 367.42249997645456H730.1955214152699L728.3255214152698 373.5924999764545H724.9155214152698L732.0755214152698 351.9824999764545ZM731.8655214152699 361.82249997645454L730.9655214152699 364.7824999764546H736.9455214152699L736.0555214152699 361.82249997645454Q735.52552141527 360.07249997645454 735.0155214152699 358.2824999764546Q734.5055214152699 356.4824999764546 734.0055214152699 354.6524999764546H733.88552141527Q733.41552141527 356.4824999764546 732.89552141527 358.2824999764546Q732.38552141527 360.07249997645454 731.86552141527 361.82249997645454M752.14552141527 373.5924999764545H748.1055214152699L743.7455214152699 351.9824999764545H747.1955214152699L749.1855214152699 363.29249997645445Q749.4655214152699 365.03249997645446 749.7655214152699 366.7524999764545Q750.0755214152698 368.4624999764545 750.3255214152698 370.2124999764545H750.4655214152699Q750.8055214152698 368.4624999764545 751.1855214152699 366.7524999764545Q751.5555214152698 365.03249997645446 751.9355214152699 363.29249997645445L754.8055214152698 351.9824999764545H757.7455214152699L760.4955214152699 363.29249997645445Q760.8855214152699 365.0024999764545 761.2555214152699 366.7324999764545Q761.6355214152699 368.4624999764545 762.0055214152699 370.2124999764545H762.1355214152699Q762.4155214152698 368.4624999764545 762.6955214152699 366.7324999764545T763.2555214152699 363.29249997645445L765.3855214152699 351.9824999764545H768.5855214152698L764.1955214152699 373.5924999764545H760.1155214152699L757.2155214152699 361.5024999764545Q756.9355214152699 360.2124999764545 756.6855214152699 358.9924999764545Q756.4355214152699 357.7624999764545 756.2255214152699 356.53249997645446H756.08552141527Q755.85552141527 357.7624999764545 755.58552141527 358.9924999764545Q755.32552141527 360.2124999764545 755.07552141527 361.5024999764545ZM780.3055214152699 351.9824999764545L787.4955214152699 373.5924999764545H783.9455214152699L782.0855214152699 367.42249997645456H774.5755214152699L772.6955214152699 373.5924999764545H769.29552141527L776.4455214152699 351.9824999764545ZM776.2455214152699 361.82249997645454L775.3355214152699 364.7824999764546H781.3255214152699L780.4355214152699 361.82249997645454Q779.89552141527 360.07249997645454 779.39552141527 358.2824999764546Q778.88552141527 356.4824999764546 778.38552141527 354.6524999764546H778.2555214152699Q777.79552141527 356.4824999764546 777.2755214152698 358.2824999764546ZM797.2255214152699 373.5924999764545H793.86552141527V365.42249997645456L787.39552141527 351.9824999764545H790.9355214152699L793.4955214152699 357.78249997645446Q793.9955214152699 358.9824999764545 794.4655214152699 360.1424999764545Q794.9455214152699 361.29249997645445 795.4755214152699 362.5124999764545H795.61552141527Q796.14552141527 361.29249997645445 796.6855214152699 360.1424999764545Q797.2155214152699 358.9824999764545 797.6955214152699 357.78249997645446L800.2255214152699 351.9824999764545H803.7155214152699L797.2255214152699 365.42249997645456ZM820.09552141527 373.5924999764545H816.76552141527V351.9824999764545H829.53552141527V354.79249997645445H820.09552141527V361.4624999764544H828.12552141527V364.29249997645445H820.09552141527ZM836.6855214152699 373.5924999764545H833.35552141527V351.9824999764545H840.39552141527Q842.61552141527 351.9824999764545 844.37552141527 352.57249997645454Q846.13552141527 353.17249997645456 847.15552141527 354.5324999764546Q848.1855214152699 355.9024999764546 848.1855214152699 358.2524999764546Q848.1855214152699 360.5024999764546 847.15552141527 361.96249997645464Q846.13552141527 363.4224999764547 844.37552141527 364.1324999764546T840.39552141527 364.84249997645463H836.6855214152699ZM836.6855214152699 354.68249997645455V362.17249997645456H840.0055214152699Q842.35552141527 362.17249997645456 843.61552141527 361.19249997645454Q844.86552141527 360.2124999764545 844.86552141527 358.2524999764545Q844.86552141527 356.2624999764545 843.61552141527 355.4724999764545Q842.35552141527 354.68249997645455 840.0055214152699 354.68249997645455ZM848.91552141527 373.5924999764545H845.16552141527L839.7455214152699 363.93249997645455L842.2555214152699 362.0324999764546ZM860.6955214152699 373.9824999764545Q857.9355214152699 373.9824999764545 855.8155214152699 372.6124999764545Q853.6955214152699 371.2524999764545 852.5055214152699 368.7124999764545Q851.3055214152699 366.18249997645455 851.3055214152699 362.70249997645453Q851.3055214152699 359.2124999764545 852.5055214152699 356.7324999764545Q853.6955214152699 354.2524999764545 855.8155214152699 352.92249997645456T860.6955214152699 351.5924999764545Q863.4655214152699 351.5924999764545 865.5755214152699 352.92249997645456Q867.6955214152699 354.2624999764546 868.89552141527 356.7524999764546Q870.0855214152699 359.2524999764546 870.0855214152699 362.70249997645465Q870.0855214152699 366.18249997645466 868.89552141527 368.71249997645464Q867.6955214152699 371.2524999764546 865.5755214152699 372.6124999764546Q863.4655214152699 373.9824999764546 860.6955214152699 373.9824999764546M860.6955214152699 371.07249997645465Q862.5055214152699 371.07249997645465 863.8455214152699 370.0424999764547T865.9255214152699 367.1424999764547Q866.66552141527 365.2624999764547 866.66552141527 362.70249997645465Q866.66552141527 358.8924999764547 865.0455214152698 356.70249997645465Q863.41552141527 354.5124999764546 860.6955214152699 354.5124999764546Q858.0055214152699 354.5124999764546 856.3855214152699 356.70249997645465Q854.7555214152699 358.8924999764547 854.7555214152699 362.70249997645465Q854.7555214152699 365.2624999764546 855.4955214152699 367.1424999764547Q856.2255214152699 369.0124999764547 857.5655214152698 370.0424999764547Q858.8955214152699 371.07249997645465 860.6955214152699 371.07249997645465M877.5455214152698 373.59249997645463H874.5655214152698V351.9824999764546H878.4255214152699L882.38552141527 363.0024999764546Q882.7655214152699 364.06249997645455 883.11552141527 365.16249997645457T883.84552141527 367.3424999764545H883.9655214152699Q884.34552141527 366.2624999764545 884.6755214152699 365.16249997645457Q885.0155214152701 364.06249997645455 885.38552141527 363.0024999764546L889.2855214152701 351.9824999764546H893.1755214152699V373.59249997645463H890.09552141527V362.7924999764547Q890.09552141527 361.82249997645465 890.16552141527 360.57249997645465T890.32552141527 358.07249997645465Q890.4255214152699 356.81249997645466 890.5155214152701 355.82249997645465H890.37552141527L888.65552141527 361.1024999764546L884.87552141527 371.5024999764546H882.7855214152701L878.99552141527 361.1024999764546L877.2855214152701 355.82249997645465H877.13552141527Q877.2355214152701 356.81249997645466 877.32552141527 358.07249997645465Q877.42552141527 359.32249997645465 877.4855214152701 360.57249997645465T877.5455214152701 362.7924999764547ZM912.5055214152699 373.59249997645463H909.1855214152699V351.9824999764546H912.5055214152699V360.82249997645465H921.85552141527V351.9824999764546H925.1955214152699V373.59249997645463H921.85552141527V363.7524999764546H912.5055214152699ZM939.07552141527 373.9824999764546Q936.30552141527 373.9824999764546 934.1855214152699 372.6124999764546Q932.07552141527 371.2524999764546 930.87552141527 368.71249997645464Q929.6855214152699 366.18249997645466 929.6855214152699 362.70249997645465Q929.6855214152699 359.21249997645464 930.87552141527 356.7324999764546Q932.07552141527 354.2524999764546 934.1855214152699 352.9224999764547Q936.30552141527 351.59249997645463 939.07552141527 351.59249997645463Q941.83552141527 351.59249997645463 943.9555214152699 352.9224999764547Q946.07552141527 354.2624999764547 947.2655214152699 356.7524999764547Q948.4655214152699 359.2524999764547 948.4655214152699 362.70249997645476Q948.4655214152699 366.1824999764548 947.2655214152699 368.71249997645475Q946.0755214152698 371.2524999764547 943.9555214152699 372.6124999764547Q941.83552141527 373.98249997645473 939.07552141527 373.98249997645473M939.07552141527 371.07249997645476Q940.88552141527 371.07249997645476 942.2155214152699 370.0424999764548Q943.55552141527 369.0124999764548 944.2955214152701 367.1424999764548Q945.0455214152701 365.2624999764548 945.0455214152701 362.70249997645476Q945.0455214152701 358.8924999764548 943.41552141527 356.70249997645476Q941.7955214152701 354.5124999764547 939.07552141527 354.5124999764547Q936.38552141527 354.5124999764547 934.7555214152699 356.70249997645476Q933.13552141527 358.8924999764548 933.13552141527 362.70249997645476Q933.13552141527 365.2624999764547 933.86552141527 367.1424999764548Q934.60552141527 369.0124999764548 935.9355214152699 370.0424999764548Q937.2755214152701 371.07249997645476 939.07552141527 371.07249997645476M955.9355214152699 373.59249997645475H952.9455214152699V351.98249997645473H956.80552141527L960.7755214152701 363.0024999764547Q961.14552141527 364.06249997645466 961.5055214152701 365.1624999764547Q961.85552141527 366.2624999764547 962.2255214152701 367.34249997645463H962.35552141527Q962.7255214152701 366.2624999764546 963.06552141527 365.1624999764547Q963.3955214152702 364.06249997645466 963.7755214152701 363.0024999764547L967.6655214152702 351.98249997645473H971.5555214152698V373.59249997645475H968.4755214152699V362.7924999764548Q968.4755214152699 361.82249997645476 968.5455214152698 360.57249997645476T968.7155214152699 358.07249997645476Q968.8055214152698 356.8124999764548 968.8955214152697 355.82249997645476H968.7555214152699L967.0455214152698 361.10249997645474L963.2555214152699 371.5024999764547H961.1655214152697L957.3855214152697 361.10249997645474L955.6655214152697 355.82249997645476H955.5255214152698Q955.6155214152698 356.8124999764548 955.7155214152699 358.07249997645476Q955.8055214152698 359.32249997645476 955.8655214152698 360.57249997645476Q955.9355214152699 361.82249997645476 955.9355214152699 362.7924999764548ZM990.32552141527 373.59249997645475H977.2455214152699V351.98249997645473H989.9955214152699V354.7924999764547H980.57552141527V360.8924999764547H988.5455214152701V363.73249997645473H980.57552141527V370.7824999764547H990.32552141527Z" fill="#21272d"/><path d="M791.4435214152699 72.4884999764543A84.85 84.85 0 0 0 744.4025214152698 55.26849997645431L744.3665214152699 47.2484999764543A3.58 3.58 0 0 0 740.7865214152698 43.668499976454285H740.7685214152699A3.58 3.58 0 0 0 737.1885214152699 47.267499976454275L737.24252141527 55.21449997645428A82.34 82.34 0 0 0 689.27052141527 72.50649997645428C677.3135214152699 81.81449997645427 671.2635214152699 91.4804999764543 671.2635214152699 101.19949997645429A3.59 3.59 0 0 0 674.8435214152698 104.77949997645428H737.2065214152699V145.91449997645427H703.0175214152698A3.58 3.58 0 1 0 703.0175214152698 153.0744999764543H737.2075214152699V214.75749997645428H720.6495214152699A3.58 3.58 0 1 0 720.6495214152699 221.9174999764543H760.9245214152699A3.58 3.58 0 1 0 760.9245214152699 214.75749997645428H744.3655214152699V153.0744999764543H778.5555214152698A3.58 3.58 0 1 0 778.5555214152698 145.91449997645427H744.3655214152699V104.77949997645428H806.7295214152698A3.58 3.58 0 0 0 810.3095214152698 101.19949997645429C810.3095214152698 91.65949997645427 803.9545214152698 82.0114999764543 791.4245214152699 72.48849997645428M678.8345214152698 97.6194999764543Q680.9285214152699 88.13249997645428 693.6905214152698 78.16249997645431C720.8455214152698 57.0044999764543 759.2585214152698 57.0404999764543 787.1105214152699 78.19849997645431C796.0075214152698 84.9464999764543 801.25152141527 91.4804999764543 802.7205214152699 97.6194999764543Z" fill="#ea5141"/><path d="M704.36052141527 206.6844999764543L695.82152141527 179.60149997645428H700.2075214152701A3.58 3.58 0 1 0 700.2075214152701 172.44149997645425H670.1175214152701L662.7245214152701 127.97849997645423A3.584 3.584 0 1 0 655.6545214152701 129.1594999764542L663.4045214152701 175.77149997645424L653.6495214152701 206.68449997645425C652.2715214152702 211.08849997645424 659.0915214152701 213.23649997645427 660.4875214152701 208.83249997645427L669.7055214152701 179.60249997645425H688.3215214152701L697.5405214152702 208.83249997645427C698.9185214152701 213.2184999764543 705.7565214152701 211.08849997645424 704.3425214152701 206.68449997645425M827.9415214152701 206.68449997645425L818.1865214152701 175.77149997645424L825.9365214152701 129.1594999764542A3.58 3.58 0 1 0 818.8845214152701 127.97849997645423L811.4915214152702 172.44149997645425H781.4015214152702A3.58 3.58 0 1 0 781.4015214152702 179.60149997645428H785.7875214152702L777.2315214152702 206.68449997645425C775.8525214152702 211.08849997645424 782.6725214152702 213.23649997645427 784.0685214152702 208.83249997645427L793.2875214152702 179.60249997645425H811.9035214152702L821.1215214152702 208.83249997645427C822.5005214152702 213.2184999764543 829.3385214152702 211.08849997645424 827.9415214152702 206.68449997645425M839.8815214152702 53.38949997645426C830.2515214152702 53.38949997645426 822.4115214152703 45.513499976454256 822.4115214152703 35.79349997645426S830.2515214152702 18.179499976454252 839.8815214152703 18.179499976454252S857.3695214152702 26.09149997645426 857.3695214152702 35.79349997645426S849.5295214152702 53.38949997645426 839.8815214152703 53.38949997645426M839.8815214152703 25.35749997645425C834.1545214152702 25.39749997645424 829.5415214152703 30.066499976454253 829.5715214152702 35.79349997645426C829.5715214152702 41.55749997645427 834.1885214152703 46.24649997645426 839.8815214152703 46.24649997645426C845.5735214152703 46.24649997645426 850.2095214152703 41.55649997645426 850.2095214152703 35.79349997645426A10.38 10.38 0 0 0 839.8815214152703 25.35749997645425M839.8635214152703 12.415499976454242A3.58 3.58 0 0 1 836.2835214152703 8.83549997645423V3.537499976454228A3.58 3.58 0 0 1 843.4435214152703 3.537499976454228V8.83549997645423A3.58 3.58 0 0 1 839.8635214152703 12.415499976454242M820.3705214152703 19.701499976454244A3.58 3.58 0 0 1 817.8285214152704 18.645499976454232L814.7135214152704 15.512499976454222A3.582 3.582 0 1 1 819.7975214152704 10.46449997645422L822.9115214152703 13.614499976454226C825.0955214152704 15.799499976454229 823.4845214152704 19.701499976454215 820.3705214152703 19.701499976454215M813.15552141527 39.37249997645432H807.91152141527A3.58 3.58 0 0 1 807.91152141527 32.212499976454325H813.1565214152699A3.58 3.58 0 0 1 813.1565214152699 39.37249997645432M817.25552141527 62.17749997645433C814.14052141527 62.17749997645433 812.52952141527 58.27549997645434 814.71352141527 56.091499976454315L817.82852141527 52.94149997645431A3.58 3.58 0 1 1 822.91152141527 57.97149997645431L819.79752141527 61.12149997645432A3.58 3.58 0 0 1 817.2555214152701 62.19549997645433M839.86352141527 71.62949997645433A3.58 3.58 0 0 1 836.2835214152701 68.04949997645431V62.75049997645431A3.58 3.58 0 0 1 843.4435214152702 62.75049997645431V68.04949997645431A3.58 3.58 0 0 1 839.8635214152702 71.62949997645433M862.4885214152702 62.17749997645433A3.58 3.58 0 0 1 859.9475214152701 61.12149997645432L856.8325214152701 57.98949997645431A3.582 3.582 0 0 1 861.9165214152702 52.94149997645431L865.0305214152702 56.07449997645432C867.2145214152702 58.27549997645431 865.60352141527 62.17749997645433 862.4885214152702 62.17749997645433M871.8505214152701 39.37249997645432H866.5875214152702A3.58 3.58 0 1 1 866.5875214152702 32.212499976454325H871.8505214152701A3.58 3.58 0 0 1 871.8505214152701 39.37249997645432M859.3745214152702 19.70149997645433C856.2595214152702 19.70149997645433 854.6485214152701 15.799499976454342 856.8325214152702 13.615499976454316L859.9475214152702 10.46549997645431A3.582 3.582 0 1 1 865.0305214152702 15.512499976454308L861.9165214152703 18.645499976454317Q860.8065214152703 19.71949997645433 859.3745214152702 19.71949997645433" fill="#ea5141"/></g><rect stroke="transparent" fill="transparent" id="space-saver" y="0" x="471.5" height="455" width="557"/></g></svg>